name p7_grf_mean_speed_1.4
datacolumns 13
datarows 22
range 0.0000000000 0.2100000000
endheader
time	grf_x_l_mean	grf_x_l_var	grf_y_l_mean	grf_y_l_var	grf_z_l_mean	grf_z_l_var	grf_x_r_mean	grf_x_r_var	grf_y_r_mean	grf_y_r_var	grf_z_r_mean	grf_z_r_var
0.0000000000	98.1415239242	1.0000000000	543.3573804772	1.0000000000	0.0000000000	0.0000000000	10.1911991589	1.0000000000	11.2468547873	1.0000000000	0.0000000000	0.0000000000
0.0100000000	102.9788599847	1.0000000000	525.6157979304	1.0000000000	0.0000000000	0.0000000000	14.4069299641	1.0000000000	50.6892412938	1.0000000000	0.0000000000	0.0000000000
0.0200000000	106.7783544793	1.0000000000	498.0939124277	1.0000000000	0.0000000000	0.0000000000	14.5305589058	1.0000000000	116.0512320890	1.0000000000	0.0000000000	0.0000000000
0.0300000000	108.7077956386	1.0000000000	460.1968761552	1.0000000000	0.0000000000	0.0000000000	4.5316851942	1.0000000000	202.9627615083	1.0000000000	0.0000000000	0.0000000000
0.0400000000	106.9010305273	1.0000000000	411.6695049953	1.0000000000	0.0000000000	0.0000000000	-18.1400696959	1.0000000000	297.1838080137	1.0000000000	0.0000000000	0.0000000000
0.0500000000	100.3235451121	1.0000000000	353.4276358447	1.0000000000	0.0000000000	0.0000000000	-45.9597497581	1.0000000000	381.7166133914	1.0000000000	0.0000000000	0.0000000000
0.0600000000	89.7590493608	1.0000000000	288.8538060289	1.0000000000	0.0000000000	0.0000000000	-68.2400476624	1.0000000000	442.9741462512	1.0000000000	0.0000000000	0.0000000000
0.0700000000	75.3570293444	1.0000000000	222.7527390903	1.0000000000	0.0000000000	0.0000000000	-82.5276119694	1.0000000000	477.3928264274	1.0000000000	0.0000000000	0.0000000000
0.0800000000	57.9139590920	1.0000000000	160.2852016751	1.0000000000	0.0000000000	0.0000000000	-90.6808997272	1.0000000000	493.2991703361	1.0000000000	0.0000000000	0.0000000000
0.0900000000	41.1280508688	1.0000000000	106.2023784560	1.0000000000	0.0000000000	0.0000000000	-94.5541520429	1.0000000000	502.4395985638	1.0000000000	0.0000000000	0.0000000000
0.1000000000	26.1908468438	1.0000000000	63.4424110959	1.0000000000	0.0000000000	0.0000000000	-96.9309056044	1.0000000000	511.8897894812	1.0000000000	0.0000000000	0.0000000000
0.1100000000	13.6017000727	1.0000000000	32.3064419102	1.0000000000	0.0000000000	0.0000000000	-99.1200406246	1.0000000000	522.8885909995	1.0000000000	0.0000000000	0.0000000000
0.1200000000	5.0371458336	1.0000000000	11.9387792364	1.0000000000	0.0000000000	0.0000000000	-99.1655941114	1.0000000000	534.7211406111	1.0000000000	0.0000000000	0.0000000000
0.1300000000	0.3035333867	1.0000000000	0.9836960658	1.0000000000	0.0000000000	0.0000000000	-96.6668825659	1.0000000000	546.4992686323	1.0000000000	0.0000000000	0.0000000000
0.1400000000	0.0000000000	1.0000000000	0.0000000000	1.0000000000	0.0000000000	0.0000000000	-92.3466000586	1.0000000000	556.0582157739	1.0000000000	0.0000000000	0.0000000000
0.1500000000	0.0000000000	1.0000000000	0.0000000000	1.0000000000	0.0000000000	0.0000000000	-85.4336615654	1.0000000000	560.8986232233	1.0000000000	0.0000000000	0.0000000000
0.1600000000	0.0000000000	1.0000000000	0.0000000000	1.0000000000	0.0000000000	0.0000000000	-76.6460583629	1.0000000000	559.2478659654	1.0000000000	0.0000000000	0.0000000000
0.1700000000	0.0000000000	1.0000000000	0.0000000000	1.0000000000	0.0000000000	0.0000000000	-68.0691675035	1.0000000000	549.9684304372	1.0000000000	0.0000000000	0.0000000000
0.1800000000	0.0000000000	1.0000000000	0.0000000000	1.0000000000	0.0000000000	0.0000000000	-59.8475644633	1.0000000000	532.6957659685	1.0000000000	0.0000000000	0.0000000000
0.1900000000	0.2475086047	1.0000000000	0.0530230574	1.0000000000	0.0000000000	0.0000000000	-52.1838682212	1.0000000000	508.6535689871	1.0000000000	0.0000000000	0.0000000000
0.2000000000	0.2269866107	1.0000000000	0.1852231458	1.0000000000	0.0000000000	0.0000000000	-45.9750582294	1.0000000000	480.1766237306	1.0000000000	0.0000000000	0.0000000000
0.2100000000	0.3281973416	1.0000000000	0.1925009141	1.0000000000	0.0000000000	0.0000000000	-40.4491316310	1.0000000000	450.2201698471	1.0000000000	0.0000000000	0.0000000000
